<mxfile host="65bd71144e">
    <diagram id="gdBbJ23Ya3C1J0ogCiwk" name="Página-1">
        <mxGraphModel dx="571" dy="427" grid="1" gridSize="10" guides="1" tooltips="1" connect="1" arrows="1" fold="1" page="1" pageScale="1" pageWidth="827" pageHeight="1169" math="0" shadow="0">
            <root>
                <mxCell id="0"/>
                <mxCell id="1" parent="0"/>
                <mxCell id="2" value="Forma (A)" style="swimlane;whiteSpace=wrap;html=1;startSize=40;" vertex="1" parent="1">
                    <mxGeometry x="364" y="40" width="120" height="80" as="geometry"/>
                </mxCell>
                <mxCell id="3" value="TColor: 1 Textoxt" style="text;html=1;align=center;verticalAlign=middle;resizable=0;points=[];autosize=1;strokeColor=none;fillColor=none;" vertex="1" parent="2">
                    <mxGeometry x="5" y="40" width="110" height="30" as="geometry"/>
                </mxCell>
                <mxCell id="6" value="Cónica" style="swimlane;whiteSpace=wrap;html=1;startSize=40;" vertex="1" parent="1">
                    <mxGeometry x="560" y="200" width="120" height="80" as="geometry"/>
                </mxCell>
                <mxCell id="8" value="Cuadrilátero" style="swimlane;whiteSpace=wrap;html=1;startSize=40;" vertex="1" parent="1">
                    <mxGeometry x="160" y="200" width="120" height="80" as="geometry"/>
                </mxCell>
                <mxCell id="10" value="Longitud: 1 Número" style="text;html=1;align=center;verticalAlign=middle;resizable=0;points=[];autosize=1;strokeColor=none;fillColor=none;" vertex="1" parent="8">
                    <mxGeometry x="-5" y="40" width="130" height="30" as="geometry"/>
                </mxCell>
                <mxCell id="11" value="Círculo" style="swimlane;whiteSpace=wrap;html=1;startSize=40;" vertex="1" parent="1">
                    <mxGeometry x="480" y="360" width="120" height="80" as="geometry"/>
                </mxCell>
                <mxCell id="15" value="Diámetro: 1 Número" style="text;html=1;align=center;verticalAlign=middle;resizable=0;points=[];autosize=1;strokeColor=none;fillColor=none;" vertex="1" parent="11">
                    <mxGeometry x="-5" y="50" width="130" height="30" as="geometry"/>
                </mxCell>
                <mxCell id="16" value="" style="endArrow=none;html=1;" edge="1" parent="11">
                    <mxGeometry width="50" height="50" relative="1" as="geometry">
                        <mxPoint x="5" y="50" as="sourcePoint"/>
                        <mxPoint x="125" y="50" as="targetPoint"/>
                    </mxGeometry>
                </mxCell>
                <mxCell id="12" value="Rectángulo" style="swimlane;whiteSpace=wrap;html=1;startSize=40;" vertex="1" parent="1">
                    <mxGeometry x="80" y="360" width="120" height="80" as="geometry"/>
                </mxCell>
                <mxCell id="13" value="Anchura: 1 Número" style="text;html=1;align=center;verticalAlign=middle;resizable=0;points=[];autosize=1;strokeColor=none;fillColor=none;" vertex="1" parent="12">
                    <mxGeometry x="-5" y="50" width="130" height="30" as="geometry"/>
                </mxCell>
                <mxCell id="14" value="" style="endArrow=none;html=1;" edge="1" parent="12">
                    <mxGeometry width="50" height="50" relative="1" as="geometry">
                        <mxPoint y="50" as="sourcePoint"/>
                        <mxPoint x="130" y="50" as="targetPoint"/>
                    </mxGeometry>
                </mxCell>
                <mxCell id="17" value="Cuadrado" style="swimlane;whiteSpace=wrap;html=1;startSize=40;" vertex="1" parent="1">
                    <mxGeometry x="240" y="360" width="120" height="80" as="geometry"/>
                </mxCell>
                <mxCell id="18" value="Elipse" style="swimlane;whiteSpace=wrap;html=1;startSize=40;" vertex="1" parent="1">
                    <mxGeometry x="640" y="360" width="135" height="100" as="geometry"/>
                </mxCell>
                <mxCell id="19" value="Eje Mayor: 1 Número&lt;br/&gt;Eje Menor: 1 Número" style="text;html=1;align=center;verticalAlign=middle;resizable=0;points=[];autosize=1;strokeColor=none;fillColor=none;" vertex="1" parent="18">
                    <mxGeometry x="-5" y="60" width="140" height="40" as="geometry"/>
                </mxCell>
                <mxCell id="20" value="" style="endArrow=none;html=1;" edge="1" parent="18">
                    <mxGeometry width="50" height="50" relative="1" as="geometry">
                        <mxPoint x="7.5" y="50" as="sourcePoint"/>
                        <mxPoint x="140" y="50" as="targetPoint"/>
                    </mxGeometry>
                </mxCell>
                <mxCell id="21" value="" style="triangle;whiteSpace=wrap;html=1;direction=north;" vertex="1" parent="1">
                    <mxGeometry x="414" y="120" width="20" height="10" as="geometry"/>
                </mxCell>
                <mxCell id="22" value="" style="endArrow=none;html=1;" edge="1" parent="1">
                    <mxGeometry width="50" height="50" relative="1" as="geometry">
                        <mxPoint x="423.5" y="130" as="sourcePoint"/>
                        <mxPoint x="424" y="160" as="targetPoint"/>
                    </mxGeometry>
                </mxCell>
                <mxCell id="23" value="" style="endArrow=none;html=1;" edge="1" parent="1">
                    <mxGeometry width="50" height="50" relative="1" as="geometry">
                        <mxPoint x="220" y="160" as="sourcePoint"/>
                        <mxPoint x="620" y="160" as="targetPoint"/>
                    </mxGeometry>
                </mxCell>
                <mxCell id="24" value="" style="endArrow=none;html=1;" edge="1" parent="1">
                    <mxGeometry width="50" height="50" relative="1" as="geometry">
                        <mxPoint x="219.5" y="200" as="sourcePoint"/>
                        <mxPoint x="219.5" y="160" as="targetPoint"/>
                    </mxGeometry>
                </mxCell>
                <mxCell id="25" value="" style="endArrow=none;html=1;" edge="1" parent="1">
                    <mxGeometry width="50" height="50" relative="1" as="geometry">
                        <mxPoint x="619.5" y="160" as="sourcePoint"/>
                        <mxPoint x="619.5" y="200" as="targetPoint"/>
                        <Array as="points">
                            <mxPoint x="619.5" y="180"/>
                        </Array>
                    </mxGeometry>
                </mxCell>
                <mxCell id="26" value="" style="triangle;whiteSpace=wrap;html=1;direction=north;" vertex="1" parent="1">
                    <mxGeometry x="205" y="280" width="25" height="10" as="geometry"/>
                </mxCell>
                <mxCell id="27" value="" style="endArrow=none;html=1;" edge="1" parent="1">
                    <mxGeometry width="50" height="50" relative="1" as="geometry">
                        <mxPoint x="217" y="320" as="sourcePoint"/>
                        <mxPoint x="217" y="290" as="targetPoint"/>
                    </mxGeometry>
                </mxCell>
                <mxCell id="28" value="" style="endArrow=none;html=1;" edge="1" parent="1">
                    <mxGeometry width="50" height="50" relative="1" as="geometry">
                        <mxPoint x="140" y="320" as="sourcePoint"/>
                        <mxPoint x="300" y="320" as="targetPoint"/>
                    </mxGeometry>
                </mxCell>
                <mxCell id="29" value="" style="endArrow=none;html=1;" edge="1" parent="1">
                    <mxGeometry width="50" height="50" relative="1" as="geometry">
                        <mxPoint x="139.5" y="360" as="sourcePoint"/>
                        <mxPoint x="139.5" y="320" as="targetPoint"/>
                    </mxGeometry>
                </mxCell>
                <mxCell id="30" value="" style="endArrow=none;html=1;" edge="1" parent="1">
                    <mxGeometry width="50" height="50" relative="1" as="geometry">
                        <mxPoint x="299.5" y="360" as="sourcePoint"/>
                        <mxPoint x="299.5" y="320" as="targetPoint"/>
                    </mxGeometry>
                </mxCell>
                <mxCell id="31" value="" style="triangle;whiteSpace=wrap;html=1;direction=north;" vertex="1" parent="1">
                    <mxGeometry x="610" y="280" width="20" height="10" as="geometry"/>
                </mxCell>
                <mxCell id="32" value="" style="endArrow=none;html=1;" edge="1" parent="1">
                    <mxGeometry width="50" height="50" relative="1" as="geometry">
                        <mxPoint x="620" y="320" as="sourcePoint"/>
                        <mxPoint x="619.5" y="290" as="targetPoint"/>
                    </mxGeometry>
                </mxCell>
                <mxCell id="33" value="" style="endArrow=none;html=1;" edge="1" parent="1">
                    <mxGeometry width="50" height="50" relative="1" as="geometry">
                        <mxPoint x="540" y="320" as="sourcePoint"/>
                        <mxPoint x="700" y="320" as="targetPoint"/>
                    </mxGeometry>
                </mxCell>
                <mxCell id="34" value="" style="endArrow=none;html=1;" edge="1" parent="1">
                    <mxGeometry width="50" height="50" relative="1" as="geometry">
                        <mxPoint x="539.5" y="360" as="sourcePoint"/>
                        <mxPoint x="539.5" y="320" as="targetPoint"/>
                    </mxGeometry>
                </mxCell>
                <mxCell id="35" value="" style="endArrow=none;html=1;" edge="1" parent="1">
                    <mxGeometry width="50" height="50" relative="1" as="geometry">
                        <mxPoint x="700" y="360" as="sourcePoint"/>
                        <mxPoint x="700" y="320" as="targetPoint"/>
                    </mxGeometry>
                </mxCell>
            </root>
        </mxGraphModel>
    </diagram>
</mxfile>